<?xml version="1.0" standalone="no"?>
<!DOCTYPE svg PUBLIC "-//W3C//DTD SVG 20010904//EN"
 "http://www.w3.org/TR/2001/REC-SVG-20010904/DTD/svg10.dtd">
<svg version="1.0" xmlns="http://www.w3.org/2000/svg"
 width="2000.000000pt" height="2000.000000pt" viewBox="0 0 2000.000000 2000.000000"
 preserveAspectRatio="xMidYMid meet">

<g transform="translate(0.000000,2000.000000) scale(0.100000,-0.100000)"
fill="#000000" stroke="none">
<path d="M9885 18813 c-810 -563 -1552 -1289 -2144 -2096 -392 -535 -761
-1181 -1009 -1767 -55 -128 -77 -169 -99 -183 -15 -10 -104 -62 -198 -114
-793 -446 -1530 -1080 -2112 -1818 -359 -455 -671 -971 -910 -1503 -127 -284
-284 -709 -343 -927 -76 -286 -114 -434 -125 -496 -2 -13 -9 -42 -14 -64 -5
-22 -15 -69 -21 -105 -6 -36 -16 -85 -21 -110 -10 -54 -38 -238 -49 -335 -21
-176 -27 -234 -35 -345 -3 -41 -8 -95 -11 -120 -3 -25 -7 -207 -9 -404 l-3
-360 -80 -105 c-366 -486 -748 -1125 -975 -1626 -30 -66 -66 -145 -80 -175
-102 -218 -294 -738 -378 -1020 -57 -195 -99 -345 -105 -375 -3 -16 -18 -82
-35 -145 -54 -212 -128 -605 -169 -900 -27 -192 -27 -198 -35 -290 -3 -41 -8
-91 -10 -110 -15 -130 -16 -160 -5 -160 7 0 10 -6 7 -14 -13 -35 712 -338
1133 -474 591 -191 1199 -323 1805 -391 701 -80 1345 -78 2111 5 l162 18 63
-41 c196 -127 546 -313 834 -445 622 -285 1348 -490 2041 -578 309 -39 512
-50 919 -50 407 0 610 11 919 50 682 87 1377 281 2016 565 244 108 622 309
843 446 l82 52 205 -22 c746 -79 1374 -79 2065 0 961 108 1909 372 2780 774
115 54 159 79 157 90 -2 8 2 15 8 15 11 0 10 10 -5 150 -2 25 -7 77 -10 115
-8 103 -24 227 -40 328 -4 23 -7 44 -31 202 -8 55 -16 107 -19 115 -2 8 -6 31
-9 50 -30 193 -131 624 -210 897 -221 761 -520 1448 -941 2163 -127 214 -428
657 -554 815 l-56 70 -1 325 c-1 179 -4 363 -8 410 -4 47 -9 117 -12 155 -8
111 -19 227 -29 295 -5 30 -13 94 -20 153 -3 23 -8 53 -10 67 -2 14 -7 45 -10
70 -3 25 -8 52 -10 60 -2 8 -7 31 -10 50 -16 100 -29 166 -44 230 -121 513
-200 775 -344 1140 -488 1240 -1321 2334 -2389 3135 -273 205 -550 384 -864
559 l-122 67 -48 112 c-26 62 -69 159 -96 216 -26 57 -48 105 -48 108 0 12
-202 404 -283 551 -621 1115 -1482 2101 -2502 2863 -198 148 -327 235 -350
236 -11 1 -56 -24 -100 -54z m218 -570 c855 -645 1614 -1484 2169 -2398 165
-272 427 -759 415 -772 -3 -3 -54 14 -114 37 -279 108 -571 199 -891 278
l-234 57 -116 174 c-347 522 -756 1000 -1220 1429 l-122 113 -28 -20 c-44 -32
-318 -296 -458 -441 -610 -634 -1116 -1384 -1481 -2198 -433 -966 -673 -2067
-673 -3084 l0 -207 -132 -41 c-144 -44 -565 -198 -690 -251 -43 -18 -81 -29
-85 -25 -13 13 -9 827 5 1011 69 893 234 1660 529 2455 546 1471 1494 2777
2723 3751 233 185 264 208 283 209 10 0 64 -35 120 -77z m45 -1860 c234 -246
484 -547 647 -777 l49 -69 -33 6 c-18 4 -119 15 -224 24 -351 31 -1125 21
-1386 -18 -35 -5 -65 -8 -68 -6 -5 5 196 273 306 407 188 230 521 590 546 590
7 0 81 -71 163 -157z m367 -1268 c197 -16 458 -46 596 -70 1223 -212 2336
-736 3288 -1549 172 -147 521 -495 680 -678 880 -1019 1425 -2228 1600 -3548
36 -270 62 -640 44 -640 -3 0 -106 102 -227 227 -214 220 -478 464 -692 640
-58 47 -107 95 -109 107 -44 188 -62 262 -100 394 -199 709 -561 1414 -1033
2011 -203 257 -521 588 -777 810 -803 697 -1839 1176 -2885 1335 -374 57 -536
69 -915 69 -315 0 -468 -9 -745 -43 -278 -36 -592 -99 -833 -169 -58 -17 -108
-31 -111 -31 -14 0 112 294 234 545 106 219 242 471 268 496 37 36 589 99 977
113 159 6 555 -5 740 -19z m-4148 -1167 c-110 -372 -185 -691 -252 -1070 l-24
-136 -182 -179 c-955 -938 -1549 -2130 -1713 -3438 -35 -279 -46 -455 -46
-742 1 -749 127 -1413 408 -2143 274 -713 704 -1371 1285 -1966 l147 -151
-122 -16 c-303 -40 -675 -67 -923 -67 l-130 0 -117 148 c-712 897 -1170 1922
-1368 3057 -135 774 -129 1605 15 2370 13 72 27 146 30 165 24 141 132 530
219 785 449 1328 1316 2490 2477 3323 141 101 331 223 337 217 2 -2 -16 -73
-41 -157z m4058 -193 c438 -38 841 -120 1240 -253 l200 -67 13 -40 c33 -96
123 -463 151 -610 12 -60 23 -121 26 -135 8 -42 36 -213 41 -255 2 -22 9 -67
14 -100 5 -33 12 -87 15 -120 4 -33 8 -71 11 -85 2 -14 6 -61 10 -105 3 -44 7
-98 9 -120 2 -22 6 -112 9 -200 4 -88 9 -197 12 -242 3 -48 1 -83 -4 -83 -5 0
-101 20 -213 45 -404 90 -845 155 -1294 192 -160 13 -323 17 -680 17 -357 0
-520 -4 -680 -17 -448 -37 -888 -102 -1295 -192 -112 -25 -208 -45 -213 -45
-5 0 -6 33 -3 73 3 39 8 151 11 249 4 97 8 191 10 210 2 18 6 69 10 113 3 44
7 91 9 105 3 14 7 52 11 85 3 33 10 87 15 120 5 33 11 83 15 110 24 196 110
609 170 825 15 52 34 121 42 152 l15 57 152 50 c451 149 856 232 1321 270 172
14 666 12 850 -4z m2084 -607 c256 -137 492 -288 730 -468 247 -187 219 -147
241 -340 69 -590 76 -1237 20 -1820 -32 -330 -90 -705 -155 -1003 -20 -89 -45
-202 -55 -252 -31 -141 -95 -358 -182 -625 -396 -1206 -1048 -2305 -1916
-3227 -74 -79 -138 -143 -143 -143 -34 0 -558 391 -718 536 -12 11 12 40 141
176 1159 1217 1876 2721 2088 4373 37 294 51 497 57 855 11 665 -46 1230 -187
1844 -32 140 -33 146 -24 146 4 0 50 -23 103 -52z m-6504 -1170 c-25 -201 -25
-1237 1 -1279 2 -5 -41 -32 -98 -60 -292 -146 -708 -387 -926 -537 -68 -46
-125 -82 -128 -80 -10 11 126 374 220 586 169 378 417 784 690 1126 107 134
229 276 238 276 4 0 6 -15 3 -32z m8051 -63 c440 -501 815 -1152 1025 -1775
21 -63 36 -116 34 -118 -2 -2 -63 37 -137 86 -246 165 -631 388 -916 531 -57
28 -101 55 -98 60 10 16 21 350 21 641 0 251 -8 510 -20 638 -2 18 0 32 4 30
5 -2 43 -44 87 -93z m-3461 -791 c405 -28 838 -90 1229 -174 173 -37 324 -75
332 -83 16 -16 -81 -803 -111 -894 -3 -8 -42 -2 -135 22 -425 110 -933 192
-1410 227 -217 15 -808 15 -1035 -1 -1783 -125 -3438 -840 -4743 -2049 -62
-58 -115 -102 -118 -99 -10 10 -6 562 6 707 12 158 45 426 61 505 12 57 5 51
254 231 760 548 1586 959 2495 1243 728 226 1553 364 2305 385 211 5 654 -4
870 -20z m3469 -998 c986 -518 1938 -1305 2657 -2196 914 -1133 1526 -2469
1785 -3897 34 -190 84 -543 84 -594 0 -24 -11 -31 -133 -82 -864 -364 -1745
-576 -2732 -659 -173 -14 -1016 -18 -1197 -5 l-117 9 117 96 c241 197 485 423
686 637 l141 150 100 7 c619 42 1011 100 1490 219 288 72 635 177 635 193 0
27 -103 449 -148 611 -365 1288 -1063 2460 -2029 3406 -465 455 -973 844
-1510 1158 -79 45 -143 87 -143 92 0 5 13 69 29 142 36 158 105 554 122 690 6
53 14 97 17 97 3 0 69 -33 146 -74z m-3561 -361 c471 -37 947 -115 1335 -220
51 -14 95 -25 98 -25 2 0 4 -9 4 -19 0 -17 -9 -49 -55 -206 -46 -153 -162
-492 -218 -635 -342 -875 -900 -1738 -1549 -2397 -153 -155 -116 -158 -289 22
-488 507 -905 1092 -1236 1735 -50 96 -105 209 -123 250 -18 41 -48 109 -67
150 -86 186 -253 645 -317 870 -8 30 -25 86 -36 124 -19 65 -25 106 -16 106 3
0 47 11 98 25 379 103 870 184 1318 219 251 19 804 20 1053 1z m-2875 -508
c49 -179 173 -545 257 -757 314 -800 763 -1545 1328 -2205 162 -189 473 -512
642 -668 693 -637 1520 -1155 2400 -1502 169 -66 509 -185 668 -232 27 -8 17
-15 -160 -122 -222 -133 -541 -292 -776 -386 l-168 -67 -62 25 c-428 172
-1033 497 -1471 789 -662 443 -1196 914 -1735 1533 -750 861 -1328 1876 -1684
2960 -84 257 -117 365 -117 387 0 16 195 113 400 199 111 46 427 168 440 169
3 0 20 -55 38 -123z m-1267 -527 c181 -619 499 -1355 842 -1947 343 -592 840
-1262 1235 -1664 l95 -97 -79 -46 c-327 -192 -876 -434 -1304 -574 -249 -82
-539 -162 -586 -162 -52 0 -508 443 -716 695 -362 438 -628 878 -845 1395
-104 248 -244 709 -294 970 -11 58 -24 123 -29 144 -8 37 -6 42 35 90 47 55
291 289 445 426 209 187 502 414 750 580 190 128 403 259 419 257 7 -1 22 -30
32 -67z m7413 -7 c341 -204 749 -506 1046 -772 157 -140 378 -352 430 -412
l48 -55 -9 -50 c-5 -27 -12 -60 -14 -74 -5 -24 -17 -83 -49 -225 -121 -548
-388 -1170 -722 -1683 -151 -232 -275 -394 -475 -622 -218 -248 -579 -590
-624 -590 -51 0 -395 97 -652 184 -408 139 -925 369 -1237 552 l-79 46 95 97
c204 206 549 630 785 961 441 620 867 1430 1115 2120 44 124 156 459 173 520
10 36 20 69 23 73 6 12 22 4 146 -70z m-10905 -1435 c20 -147 78 -437 127
-631 47 -189 131 -482 144 -507 5 -9 -23 -76 -85 -200 -217 -436 -404 -924
-534 -1395 -52 -189 -136 -553 -130 -559 18 -17 492 -151 739 -210 583 -137
1115 -197 1750 -197 522 0 926 36 1420 127 819 150 1694 472 2405 883 77 44
146 81 154 81 8 0 62 -44 120 -98 121 -112 374 -324 506 -426 50 -38 94 -72
98 -76 19 -16 -472 -307 -786 -466 -1082 -548 -2230 -856 -3449 -925 -238 -13
-918 -7 -1123 11 -975 83 -1861 298 -2707 655 -163 68 -150 33 -113 304 174
1282 629 2497 1343 3588 48 73 92 133 98 133 5 0 16 -42 23 -92z m12903 -356
c208 -268 558 -802 558 -852 0 -18 -94 -256 -167 -420 -239 -538 -551 -1050
-931 -1525 -180 -225 -535 -595 -762 -796 -667 -589 -1397 -1018 -2255 -1325
-194 -69 -209 -74 -410 -129 -617 -170 -1176 -246 -1820 -246 -871 0 -1674
151 -2475 466 -247 97 -730 323 -695 325 29 1 367 86 536 133 190 54 559 176
724 238 l83 31 198 -56 c425 -119 773 -182 1204 -216 186 -15 652 -15 845 0
1019 78 1967 403 2814 965 972 645 1744 1594 2183 2685 90 224 213 602 248
765 14 68 18 77 30 70 5 -3 47 -54 92 -113z m-12329 -1557 c171 -377 409 -787
664 -1148 58 -81 103 -150 101 -153 -14 -13 -486 54 -753 107 -217 43 -515
116 -529 129 -18 18 158 574 274 865 80 202 154 365 163 362 4 -1 41 -74 80
-162z m13201 102 c112 -244 265 -664 350 -959 67 -233 77 -205 -94 -250 -182
-48 -487 -110 -695 -142 -197 -31 -436 -59 -443 -52 -2 3 38 65 90 138 280
392 552 873 734 1296 8 17 18 32 22 32 4 -1 20 -29 36 -63z m-6473 -1809 c241
-154 570 -343 784 -450 154 -77 177 -92 157 -99 -30 -11 -280 -55 -422 -74
-438 -59 -985 -59 -1410 0 -147 20 -395 64 -423 74 -18 7 6 23 149 94 220 110
572 313 789 455 94 61 177 111 186 111 9 1 94 -49 190 -111z"/>
</g>
</svg>
